<svg xmlns="http://www.w3.org/2000/svg" viewBox="0 0 1600 900"><defs><linearGradient id="bg" x1="0" y1="0" x2="1" y2="1"><stop stop-color="#071226"/><stop offset="1" stop-color="#15113a"/></linearGradient><linearGradient id="cyan"><stop stop-color="#55e6ff"/><stop offset="1" stop-color="#4aa8ff"/></linearGradient><filter id="glow"><feGaussianBlur stdDeviation="10" result="b"/><feMerge><feMergeNode in="b"/><feMergeNode in="SourceGraphic"/></feMerge></filter></defs><rect width="1600" height="900" rx="38" fill="url(#bg)"/><circle cx="1400" cy="110" r="260" fill="#263d9a" opacity=".22"/><circle cx="180" cy="820" r="240" fill="#723ca7" opacity=".18"/><text x="86" y="110" fill="#dbeafe" font-family="Inter,Arial,sans-serif" font-size="38" font-weight="700">THE REAL PRODUCT IS MEANING</text><text x="88" y="155" fill="#94a3b8" font-family="Inter,Arial,sans-serif" font-size="22">Every boundary must carry the same question forward</text>
<g font-family="Inter,Arial,sans-serif"><rect x="120" y="360" width="250" height="150" rx="20" fill="#0b1d38" stroke="#55e6ff" stroke-width="3"/><rect x="500" y="360" width="250" height="150" rx="20" fill="#162f36" stroke="#34d399" stroke-width="3"/><rect x="880" y="360" width="250" height="150" rx="20" fill="#201743" stroke="#d56bff" stroke-width="3"/><rect x="1260" y="360" width="250" height="150" rx="20" fill="#3a1722" stroke="#fb7185" stroke-width="3"/><text x="245" y="425" text-anchor="middle" fill="#f8fafc" font-size="27">QUESTION</text><text x="625" y="425" text-anchor="middle" fill="#f8fafc" font-size="27">CONTRACT</text><text x="1005" y="425" text-anchor="middle" fill="#f8fafc" font-size="27">GENERATION</text><text x="1385" y="425" text-anchor="middle" fill="#f8fafc" font-size="27">VALIDATION</text><path d="M375 435 H490 M755 435 H870 M1135 435 H1250" stroke="#cbd5e1" stroke-width="6"/><text x="800" y="670" text-anchor="middle" fill="#dbeafe" font-size="26">A reliable system is one where the question survives the trip.</text></g><text x="88" y="838" fill="#55e6ff" font-family="Inter,Arial,sans-serif" font-size="16" letter-spacing="3">SCOUT / BUILD NOTE</text><text x="1510" y="838" text-anchor="end" fill="#64748b" font-family="Inter,Arial,sans-serif" font-size="15">Bradley Matera</text></svg>